<?xml version="1.0" standalone="no"?>
<!DOCTYPE svg PUBLIC "-//W3C//DTD SVG 20010904//EN"
 "http://www.w3.org/TR/2001/REC-SVG-20010904/DTD/svg10.dtd">
<svg version="1.0" xmlns="http://www.w3.org/2000/svg"
 width="640.000000pt" height="640.000000pt" viewBox="0 0 640.000000 640.000000"
 preserveAspectRatio="xMidYMid meet">
<metadata>
Created by potrace 1.14, written by Peter Selinger 2001-2017
</metadata>
<g transform="translate(0.000000,640.000000) scale(0.100000,-0.100000)"
fill="#000000" stroke="none">
<path d="M2763 5270 c-347 -5 -353 -5 -374 -27 -20 -20 -21 -26 -11 -60 6 -21
30 -60 52 -88 52 -65 48 -59 110 -140 129 -168 155 -200 160 -205 4 -3 26 -32
51 -65 47 -63 68 -90 84 -109 10 -10 267 -339 389 -496 27 -36 100 -128 161
-206 60 -77 121 -156 135 -174 32 -42 186 -238 209 -265 18 -22 163 -207 226
-290 22 -29 54 -69 70 -90 17 -20 52 -65 78 -99 27 -33 54 -68 60 -76 7 -8
137 -175 290 -370 153 -195 286 -364 295 -375 9 -11 30 -38 47 -60 66 -89 152
-153 207 -156 32 -2 87 10 123 26 16 8 141 59 276 114 241 98 495 203 574 237
22 10 45 18 50 20 6 1 35 13 65 26 30 14 93 40 138 59 101 41 118 60 102 118
-6 22 -17 47 -25 55 -8 8 -15 18 -15 21 0 10 -139 185 -170 215 -3 3 -37 43
-75 90 -38 47 -72 87 -75 90 -3 3 -24 27 -45 55 -22 27 -47 56 -55 65 -8 8
-33 38 -55 65 -22 27 -52 63 -66 80 -27 31 -176 210 -233 279 -17 21 -38 45
-47 55 -8 9 -94 111 -189 226 -96 116 -179 215 -185 221 -6 6 -27 31 -46 54
-18 24 -50 62 -69 84 -20 23 -81 95 -135 161 -55 66 -102 122 -105 125 -4 4
-57 68 -110 134 -8 10 -27 32 -43 50 -15 17 -31 36 -36 42 -44 54 -167 200
-171 204 -3 3 -15 17 -26 32 -12 15 -41 51 -66 80 -25 29 -73 86 -108 126 -78
92 -129 129 -188 138 -56 9 -735 11 -1229 4z"/>
<path d="M2650 3888 c-30 -11 -80 -39 -110 -61 -30 -23 -210 -195 -400 -383
-190 -188 -429 -424 -532 -525 -370 -365 -1472 -1456 -1537 -1522 -71 -72 -83
-103 -41 -101 32 1 77 11 90 19 5 3 18 8 27 10 10 2 38 10 63 18 25 8 119 39
210 67 91 29 206 66 255 82 50 16 97 31 105 33 8 2 116 36 240 75 124 39 246
78 271 86 41 12 46 17 43 40 -1 15 -4 87 -6 162 l-3 135 28 21 c15 11 155 67
310 123 691 252 656 238 722 300 175 163 280 260 299 276 11 10 65 60 120 110
54 51 111 103 126 117 250 229 290 268 290 278 0 6 -316 415 -373 483 -12 14
-47 60 -77 102 -30 42 -57 76 -60 76 -3 0 -30 -9 -60 -21z"/>
<path d="M3126 2548 c-45 -9 -89 -24 -191 -63 -38 -15 -74 -28 -80 -30 -12 -3
-42 -13 -75 -27 -35 -14 -334 -123 -465 -169 -60 -22 -119 -43 -130 -48 -11
-5 -60 -23 -110 -41 -49 -17 -99 -35 -110 -40 -11 -5 -65 -25 -120 -44 -341
-118 -389 -140 -393 -177 -3 -22 2 -28 25 -34 37 -11 47 -13 128 -29 11 -2 38
-9 60 -14 22 -6 51 -13 65 -16 14 -2 68 -14 120 -26 52 -12 102 -23 110 -25 8
-2 56 -12 105 -24 50 -11 101 -22 115 -25 14 -2 77 -16 140 -31 63 -14 165
-37 225 -50 61 -14 200 -45 311 -70 111 -25 210 -47 220 -49 10 -2 255 -57
544 -121 289 -64 532 -118 540 -120 182 -40 485 -108 515 -115 96 -22 178 -34
240 -34 67 0 133 12 157 28 13 8 28 16 33 17 11 1 153 86 270 162 41 26 79 47
85 47 5 0 10 4 10 9 0 5 9 13 21 16 11 4 40 20 62 35 40 27 500 311 542 334
11 6 31 19 45 27 14 9 71 45 127 79 182 112 178 127 -37 165 -47 8 -124 23
-172 34 l-86 18 -509 -222 c-279 -123 -519 -228 -533 -235 -14 -6 -63 -27
-110 -47 -75 -31 -92 -35 -148 -30 -70 5 -116 30 -186 100 -34 35 -97 109
-128 152 -13 17 -138 179 -151 195 -7 8 -46 60 -87 115 -41 55 -83 108 -92
119 -9 10 -50 63 -90 117 -75 101 -79 104 -138 113 -76 11 -116 18 -145 23
-44 7 -65 10 -115 17 -25 4 -92 14 -150 22 -129 19 -212 23 -264 12z"/>
</g>
</svg>
